Coordinates
version=1
nRows=14
nColumns=33
inDegrees=yes

Units are S.I. units (second, meters, Newtons, ...)
Angles are in degrees.

endheader
time	ground_thorax_rot_x	ground_thorax_rot_y	ground_thorax_rot_z	ground_thorax_tx	ground_thorax_ty	ground_thorax_tz	clav_prot_r	clav_elev_r	scapula_abduction_r	scapula_elevation_r	scapula_upward_rot_r	scapula_winging_r	shoulder_elv_r	plane_of_elev_r	axial_rot_r	elbow_flexion_r	pro_sup_r	wrist_flex_r	wrist_dev_r	clav_prot_l	clav_elev_l	scapula_abduction_l	scapula_elevation_l	scapula_upward_rot_l	scapula_winging_l	shoulder_elv_l	plane_of_elev_l	axial_rot_l	elbow_flexion_l	pro_sup_l	wrist_flex_l	wrist_dev_l	
8.9000	40.458935	12.977617	13.842656	-203.104100	832.784095	3.246868	12.912788	40.979863	40.425082	45.000000	-26.452668	-2611.015383	-3173.540132	33.165219	46.321116	1452.280562	17.603124	19.630652	7.744213	6.608860	-45.000000	-37.367663	45.000000	-39.772191	456.456011	-92.906650	138.154428	154.856183	-349.479852	1.772233	7.549610	-19.880176	
8.9100	40.425774	13.000716	13.914999	-205.233201	833.985070	3.275482	12.915819	40.884572	40.289061	45.000000	-26.875419	-2611.001979	-3173.334877	33.197086	46.258329	1452.301935	17.038561	19.644895	7.739585	6.714261	-45.000000	-37.335047	45.000000	-40.088991	456.653663	-92.785752	138.233235	154.628818	-349.456295	1.026690	7.552877	-19.853794	
8.9200	40.391716	13.027680	13.996398	-207.339461	835.175792	3.313086	12.925517	40.768426	40.153276	45.000000	-27.319148	-2610.985720	-3173.130622	33.238327	46.212256	1452.310555	16.436198	19.656735	7.744741	6.834745	-45.000000	-37.287289	45.000000	-40.455425	456.855493	-92.659676	138.292235	154.380504	-349.440307	0.257310	7.547317	-19.821296	
8.9300	40.369060	13.015711	14.025876	-209.423418	836.355264	3.359410	12.920512	40.659634	40.026643	45.000000	-27.702191	-2610.977416	-3172.945233	33.277550	46.180170	1452.305033	15.823776	19.666420	7.746762	6.931804	-45.000000	-37.243815	45.000000	-40.765279	457.054169	-92.545072	138.340851	154.117139	-349.431771	-0.495748	7.550614	-19.787493	
8.9400	40.350600	12.985922	14.035610	-211.485761	837.522084	3.413993	12.912187	40.545785	39.902406	45.000000	-28.065618	-2610.973197	-3172.771540	33.326387	46.178910	1452.286896	15.214268	19.672919	7.744073	7.031329	-45.000000	-37.191465	45.000000	-41.084084	457.256092	-92.429147	138.369034	153.823198	-349.430701	-1.217394	7.544091	-19.753009	
8.9500	40.340112	12.925916	14.001941	-213.527135	838.674413	3.476077	12.885725	40.454404	39.787806	45.000000	-28.359970	-2610.982641	-3172.621210	33.360395	46.195270	1452.265428	14.634570	19.679515	7.727844	7.100665	-45.000000	-37.148522	45.000000	-41.336253	457.451273	-92.327889	138.402094	153.521950	-349.429873	-1.870872	7.535132	-19.723744	
8.9600	40.326547	12.867842	13.974878	-215.548377	839.809940	3.544623	12.859778	40.360698	39.674396	45.000000	-28.661308	-2610.996065	-3172.479288	33.398873	46.230304	1452.240592	14.085709	19.682945	7.695085	7.177630	-45.000000	-37.096873	45.000000	-41.613732	457.649605	-92.225748	138.425626	153.216384	-349.431201	-2.456006	7.505107	-19.698183	
8.9700	40.314682	12.795473	13.928251	-217.549979	840.925517	3.618390	12.819529	40.280242	39.576462	45.000000	-28.918744	-2611.023562	-3172.354695	33.412205	46.264993	1452.224902	13.585537	19.690566	7.651334	7.229162	-45.000000	-37.060409	45.000000	-41.833655	457.843428	-92.140999	138.465795	152.923381	-349.426559	-2.947993	7.464471	-19.682235	
8.9800	40.298644	12.726986	13.896653	-219.532198	842.017062	3.696105	12.782557	40.183357	39.483373	45.000000	-29.208520	-2611.052688	-3172.231815	33.436442	46.306822	1452.206025	13.129098	19.695238	7.590095	7.295987	-45.000000	-37.010364	45.000000	-42.104450	458.043395	-92.050877	138.485501	152.642549	-349.425941	-3.354987	7.394417	-19.671666	
8.9900	40.279815	12.657407	13.864691	-221.494403	843.079279	3.776578	12.740506	40.093498	39.398258	45.000000	-29.481492	-2611.087755	-3172.117387	33.441521	46.347101	1452.197394	12.728489	19.703110	7.521336	7.348953	-45.000000	-36.968412	45.000000	-42.353882	458.237987	-91.970822	138.516830	152.379040	-349.419522	-3.663111	7.313958	-19.669890	
9.0000	40.257325	12.593015	13.848154	-223.435143	844.105797	3.858800	12.704586	39.984564	39.315106	45.000000	-29.793809	-2611.122299	-3172.003110	33.463663	46.392500	1452.181673	12.379804	19.706716	7.434624	7.420412	-45.000000	-36.908630	45.000000	-42.670007	458.436273	-91.881838	138.518346	152.145235	-349.419630	-3.885177	7.207111	-19.671996	
9.0100	40.232458	12.530246	13.832965	-225.352010	845.089393	3.941933	12.666729	39.888780	39.231780	45.000000	-30.087169	-2611.155968	-3171.893359	33.467745	46.443170	1452.178161	12.098085	19.714519	7.348043	7.477714	-45.000000	-36.858388	45.000000	-42.957885	458.626498	-91.803320	138.537084	151.916970	-349.412521	-4.008099	7.096944	-19.681288	
9.0200	40.207225	12.467990	13.821884	-227.242035	846.022561	4.025314	12.632274	39.789104	39.145215	45.000000	-30.398603	-2611.185043	-3171.783878	33.481713	46.505386	1452.173671	11.885265	19.721580	7.252054	7.541005	-45.000000	-36.798449	45.000000	-43.267941	458.815299	-91.724356	138.541942	151.703500	-349.407026	-4.043209	6.971031	-19.693604	
9.0300	40.181014	12.402777	13.806619	-229.101598	846.897858	4.108435	12.596074	39.709038	39.053113	45.000000	-30.685428	-2611.207340	-3171.677520	33.481806	46.579094	1452.183238	11.753035	19.734011	7.161272	7.586605	-45.000000	-36.749438	45.000000	-43.527223	458.994993	-91.658888	138.570479	151.479251	-349.393579	-3.984988	6.847152	-19.710428	
